<svg width="322" height="190" viewBox="0 0 322 190" fill="none" xmlns="http://www.w3.org/2000/svg">
<path d="M11 148.295C31 157 44 155 61.8567 152.221C94.344 147.164 122.787 136 158.5 136C194.212 136 233.407 152.221 258.131 152.221C273.5 152.221 285.5 154.5 311.5 147.5V179.5H11V148.295Z" fill="#E4F4F8"/>
<path fill-rule="evenodd" clip-rule="evenodd" d="M160.215 1.4707L167.533 16.8758C169.716 21.473 171.853 26.7144 173.523 31.4421C175.094 35.8869 176.582 40.7849 176.977 44.3378C177.307 47.3098 177.769 52.8208 176.165 57.9365C175.304 60.6832 173.671 63.9033 170.566 66.4185C167.35 69.0233 163.466 70.1354 159.5 70.1354C154.525 70.1354 147.439 69.2576 143 62.716C141.106 59.9252 140.267 56.8574 139.835 54.1831C139.4 51.4857 139.278 48.5105 139.278 45.4421C139.278 40.3749 140.934 34.587 142.808 29.7512C144.758 24.7185 147.426 19.4918 150.345 15.3789L160.215 1.4707ZM97.992 154.974C86.8575 157.562 75.2864 160.251 63.3947 162.102L63.2239 162.129C49.1023 164.327 36.6042 166.272 21 162.319V169.5H301.5V160.09C286.348 163.018 275.96 162.693 266.419 162.394C263.616 162.306 260.887 162.221 258.131 162.221C245.657 162.221 230.235 158.582 215.08 155.005C213.436 154.617 211.795 154.23 210.161 153.848C192.738 149.777 175.056 146 158.5 146C141.697 146 126.467 148.621 111.107 151.983C106.81 152.924 102.436 153.941 97.992 154.974ZM106.83 132.446C122.742 128.962 139.591 126 158.5 126C177.656 126 197.428 130.334 214.712 134.373C216.203 134.722 217.671 135.066 219.114 135.405C235.103 139.16 248.138 142.221 258.131 142.221C261.453 142.221 264.521 142.313 267.511 142.402C279.112 142.749 289.528 143.06 308.9 137.844L321.5 134.452V189.5H1V133.038L16.5 139C34.5 145 47 144.413 60.3188 142.34C71.4397 140.609 81.8743 138.183 92.7091 135.664C97.3159 134.592 101.995 133.504 106.83 132.446Z" fill="#E4F4F8" stroke="#E4F4F8" stroke-linecap="round"/>
</svg>
